<?xml version="1.0" standalone="no"?>
<!DOCTYPE svg PUBLIC "-//W3C//DTD SVG 20010904//EN"
 "http://www.w3.org/TR/2001/REC-SVG-20010904/DTD/svg10.dtd">
<svg version="1.0" xmlns="http://www.w3.org/2000/svg"
 width="500.000000pt" height="500.000000pt" viewBox="0 0 500.000000 500.000000"
 preserveAspectRatio="xMidYMid meet">
<metadata>
Created by potrace 1.11, written by Peter Selinger 2001-2013
</metadata>
<g transform="translate(0.000000,500.000000) scale(0.100000,-0.100000)"
fill="#000000" stroke="none">
<path d="M577 4979 c-44 -10 -84 -22 -90 -26 -7 -4 -14 -8 -17 -8 -20 -3 -89
-40 -138 -74 -121 -82 -226 -211 -279 -345 -55 -139 -53 -57 -53 -2040 0
-1260 4 -1844 11 -1870 6 -21 12 -46 14 -55 54 -238 276 -467 518 -532 23 -6
51 -14 62 -17 11 -4 857 -8 1880 -9 1807 -2 1862 -1 1936 17 283 72 490 279
559 559 18 73 18 146 17 1941 -2 1773 -3 1868 -21 1925 -78 257 -280 461 -519
526 -23 6 -51 14 -62 17 -11 4 -857 8 -1880 9 -1806 1 -1862 1 -1938 -18z"/>
</g>
</svg>
