<?xml version="1.0" standalone="no"?>
<!DOCTYPE svg PUBLIC "-//W3C//DTD SVG 20010904//EN"
 "http://www.w3.org/TR/2001/REC-SVG-20010904/DTD/svg10.dtd">
<svg version="1.0" xmlns="http://www.w3.org/2000/svg"
 width="260.000000pt" height="260.000000pt" viewBox="0 0 260.000000 260.000000"
 preserveAspectRatio="xMidYMid meet">
<metadata>
Created by potrace 1.11, written by Peter Selinger 2001-2013
</metadata>
<g transform="translate(0.000000,260.000000) scale(0.100000,-0.100000)"
fill="#000000" stroke="none">
<path d="M330 2490 c-86 -25 -153 -81 -198 -165 l-27 -50 0 -975 0 -975 27
-50 c34 -64 79 -110 143 -143 l50 -27 970 0 970 0 55 26 c67 32 113 77 148
144 l27 50 0 975 0 975 -27 50 c-34 64 -79 110 -143 143 l-50 27 -960 1 c-528
1 -971 -1 -985 -6z"/>
</g>
</svg>
